<?xml version="1.0" standalone="no"?>
<!DOCTYPE svg PUBLIC "-//W3C//DTD SVG 1.1//EN" "http://www.w3.org/Graphics/SVG/1.1/DTD/svg11.dtd">
<svg xmlns="http://www.w3.org/2000/svg">
<metadata>Generated by Fontastic.me</metadata>
<defs>
<font id="font-icon" horiz-adv-x="512">
<font-face font-family="font-icon" units-per-em="512" ascent="480" descent="-32"/>
<missing-glyph horiz-adv-x="512" />

<glyph glyph-name="arrow-down" unicode="&#98;" d="M92 279c0 5 1 9 5 13 7 7 18 8 26 1l144-138 145 137c8 7 19 7 26-1 7-7 7-19 0-26l-158-148c-7-6-18-6-25 0l-158 149c-3 3-5 8-5 13z"/>
<glyph glyph-name="arrow-left" unicode="&#99;" d="M323 411c5 0 9-2 13-5 7-7 8-19 1-26l-138-145 137-144c7-8 7-20-1-27-7-6-19-6-26 1l-148 158c-6 7-6 18 0 25l149 157c3 4 8 6 13 6z"/>
<glyph glyph-name="arrow-right" unicode="&#100;" d="M233 55c-5 0-9 2-13 6-7 7-7 18-1 26l138 144-137 145c-7 7-7 19 1 26 7 7 19 7 26-1l148-157c7-7 6-18 0-26l-149-157c-3-4-8-6-13-6z"/>
<glyph glyph-name="arrow-up" unicode="&#101;" d="M474 158c0-4-2-9-5-12-7-8-19-8-26-1l-145 138-144-138c-8-6-20-6-27 1-6 8-6 19 1 26l158 148c7 7 18 7 25 0l157-148c4-4 6-9 6-14z"/>
<glyph glyph-name="basket" unicode="&#102;" d="M85 391l43 0 75-207c2-6 8-10 14-10l199 0c9 0 16 7 16 15 0 9-7 16-16 16l-188 0-74 207c-2 6-8 10-15 10l-54 0c-8 0-15-7-15-16 0-8 7-15 15-15m328-155l-152-1c-6 0-11 3-13 9l-32 105c-1 4 0 9 2 12 3 4 8 6 12 5l203-11c4 0 8-2 10-5 3-4 4-8 3-12l-19-93c-1-6-7-9-14-9m15-121c0-19-15-34-34-34-19 0-35 15-35 34 0 19 16 35 35 35 19-1 34-16 34-35m-165 0c0-19-15-34-34-34-19 0-34 15-34 34 0 19 15 35 34 35 19-1 34-16 34-35"/>
<glyph glyph-name="basket2" unicode="&#103;" d="M213 125c-22 0-41-19-41-41 0-23 19-41 41-41 23 0 41 18 41 41 0 22-18 41-41 41z m0-57c-8 0-15 7-15 16 0 8 7 15 15 15 9 0 15-7 15-15 0-9-6-16-15-16z m113 57c-22 0-41-19-41-41 0-23 19-41 41-41 23 0 41 18 41 41 0 22-18 41-41 41z m15-41c0-9-6-16-15-16-8 0-15 7-15 16 0 8 7 15 15 15 9 0 15-7 15-15z m91 321l-139-114-63 47-25-28 78-91 13-16 14 16 147 158z m-50-147l-24-95-177 0-33 136 31 0 0 26-38 0-21 79 0 0c0 0 0 1-1 1 0 1 0 1-1 2 0 0 0 1-1 2 0 0-1 1-1 1 0 0 0 0 0 0-1 1-2 1-3 2-1 0-2 0-2 1-1 0-1 0-2 0-1 0-1 0-2 0l-44 0c-7 0-13-6-13-13 0-7 6-13 13-13l34 0 22-78 40-162c1-6 6-10 12-10l197 0c6 0 12 4 13 10l27 111z"/>
<glyph glyph-name="calendar" unicode="&#104;" d="M351 360c14 0 26 12 26 26l0 27c0 14-12 26-26 26-14 0-26-12-26-26l0-27c0-14 12-26 26-26z m93 34l-53 0 0-13c0-22-18-40-40-40-22 0-40 18-40 40l0 13-106 0 0-13c0-22-18-40-40-40-22 0-40 18-40 40l0 13-51 0 0-331 370 0z m-26-305l-317 0 0 212 317 0z m-253 271c14 0 26 12 26 26l0 27c0 14-12 26-26 26-14 0-26-12-26-26l0-27c0-14 12-26 26-26z m41-88l42 0 0-37-42 0z m68 0l41 0 0-37-41 0z m62 0l41 0 0-37-41 0z m-130-60l42 0 0-36-42 0z m68 0l41 0 0-36-41 0z m62 0l41 0 0-36-41 0z m-130-62l42 0 0-36-42 0z m-67 62l42 0 0-36-42 0z m0-62l42 0 0-36-42 0z m135 0l41 0 0-36-41 0z m62 0l41 0 0-36-41 0z"/>
<glyph glyph-name="call" unicode="&#105;" d="M307 218c-4 0-8 0-11-2-2 0-5-5-8-8l-1-1c-2-2-4-4-5-6l-3-2-3 0c-38 0-79 46-79 78l0 4 2 2c2 2 4 4 6 5l1 1c4 3 8 7 9 9 3 6 2 17-1 27-5 12-13 23-23 30-6-2-12-11-16-22-10-30-7-79 35-121 35-35 72-40 91-40 30 0 49 11 53 21-13 17-33 25-47 25z m-45 232c-102 0-185-83-185-186 0-102 83-185 185-185 103 0 186 83 186 185 0 103-83 186-186 186z m109-257c-3-21-33-37-70-37-22 0-64 6-102 44-48 47-51 104-40 138 7 20 19 33 32 35l3 0 3-1c15-10 26-25 32-41 5-15 5-30 1-40-3-5-8-9-13-13l-1-1c0-1-2-2-3-3 3-22 33-56 59-58 1 1 2 2 3 3 4 5 9 10 14 13 5 2 11 3 17 3 20 0 48-11 63-36l2-3z"/>
<glyph glyph-name="cam" unicode="&#106;" d="M403 337l0 0 0 22-50 0 0-22-25 0 0 22c0 14-11 28-25 28l-100 0c-14 0-25-14-25-28l0-22-75 0c-27 0-50-22-50-50l0-150c0-27 23-50 50-50l300 0c28 0 50 23 50 50l0 150c0 28-22 50-50 50z m-150-203c-42 0-75 33-75 75 0 41 33 75 75 75 41 0 75-34 75-75 0-42-34-75-75-75z"/>
<glyph glyph-name="card" unicode="&#107;" d="M142 226l96 0 0-41-96 0z m121-1l56 0 0-40-56 0z m133 161l-274 0c-34 0-61-28-61-61l0-158c0-34 27-61 61-61l274 0c34 0 61 27 61 61l0 158c0 33-27 61-61 61z m-274-39l274 0c12 0 22-10 22-22l0-19-318 0 0 19c0 12 10 22 22 22z m274-203l-274 0c-12 0-22 10-22 22l0 100 318 0 0-100c0-12-10-22-22-22z"/>
<glyph glyph-name="card2" unicode="&#108;" d="M145 189l77 0 0-32-77 0z m97-1l45 0 0-32-45 0z m107 129l-220 0c-27 0-49-22-49-49l0-127c0-26 22-48 49-48l220 0c26 0 48 22 48 48l0 127c0 27-22 49-48 49z m-220-32l220 0c9 0 17-7 17-17l0-15-254 0 0 15c0 10 7 17 17 17z m220-161l-220 0c-10 0-17 8-17 17l0 80 254 0 0-80c0-9-8-17-17-17z m107 176l-64 109c-13 24-43 32-66 18l-152-88 63 0 105 61c8 5 19 2 23-6l8-13-72-42 64 0 24 14 40-69c5-8 2-19-6-24l-6-3 0-36 22 12c22 14 31 44 17 67z"/>
<glyph glyph-name="card-amex" unicode="&#109;" d="M418 109l-321 0c-24 0-44 19-44 43l0 186c0 24 20 43 44 43l321 0c24 0 43-19 43-43l0-186c0-24-19-43-43-43z m-321 267c-21 0-38-17-38-38l0-186c0-21 17-38 38-38l321 0c21 0 38 17 38 38l0 186c0 21-17 38-38 38z m172-194l-33 0 0 50-10-26-23 0-11 26 0-50-52 0-6 21-24 0-6-21-35 0 37 114 33 0 21-68 1 68 35 0 19-45 19 45 35 0z m-24 10l16 0 0 95-21 0-25-59-24 59-21 0-1-88-9 0-28 88-20 0-30-95 15 0 6 21 37 0 7-21 36 0 0 88 26-64 11 0 25 64 0-88z m-107 30l-32 0 16 56z m-20 10l8 0-4 13z m187 44l0-28 39 0 0-10-39 0 0-36 49 0 22 37-21 37z m44-65l-35 0 0 17 39 0 0 30-39 0 0 9 36 0 16-27z m58 29l33 56-38 0-15-27-15 27-91 0 0-114 88 0 17 29 16-29 39 0z m-21-11l-22-37-74 0 0 95 77 0 20-36 20 36 17 0-28-47 29-48-18 0z"/>
<glyph glyph-name="card-boleto-31" unicode="&#110;" d="M152 315l29 0 0-110-29 0z m120 0l29 0 0-110-29 0z m-71 0l18 0 0-110-18 0z m36 0l18 0 0-110-18 0z m84 0l17 0 0-110-17 0z m35 0l18 0 0-110-18 0z m22 61l-231 0c-29 0-52-23-52-51l0-133c0-29 23-52 52-52l231 0c28 0 51 23 51 52l0 133c0 28-23 51-51 51z m18-184c0-10-8-19-18-19l-231 0c-11 0-19 8-19 19l0 133c0 10 8 18 19 18l231 0c10 0 18-8 18-18z"/>
<glyph glyph-name="card-boleto-64" unicode="&#111;" d="M412 97l-317 0c-24 0-43 20-43 43l0 184c0 24 19 43 43 43l317 0c24 0 43-19 43-43l0-184c0-23-19-43-43-43z m-317 264c-21 0-37-17-37-37l0-184c0-20 16-37 37-37l317 0c21 0 38 17 38 37l0 184c0 20-17 37-38 37z m46-85l29 0 0-109-29 0z m120 0l29 0 0-109-29 0z m-71 0l18 0 0-109-18 0z m36 0l18 0 0-109-18 0z m84 0l17 0 0-109-17 0z m35 0l18 0 0-109-18 0z"/>
<glyph glyph-name="card-cash" unicode="&#112;" d="M392 372l-241 0c-30 0-54-24-54-53l0-140c0-30 24-54 54-54l241 0c30 0 54 24 54 54l0 140c0 29-24 53-54 53z m-261-53c0 10 9 19 20 19l241 0c11 0 20-9 20-19l0-140c0-11-9-19-20-19l-241 0c-11 0-20 8-20 19z m184-64c-6 6-19 11-36 16l0 26c3-2 5-4 6-5 2-2 3-5 5-9l33 5c-2 10-7 17-14 23-7 5-17 8-30 9l0 9-14 0 0-9c-15-1-25-4-33-12-7-7-11-16-11-26 0-8 2-15 6-20 3-6 8-9 13-12 5-2 14-5 25-9l0-31c-4 2-7 4-9 7-2 2-3 7-4 13l-36-5c1-6 3-11 5-15 2-4 5-8 9-12 4-3 8-6 14-8 5-2 13-4 21-4l0-17 13 0 0 17c8 0 14 1 19 3 5 1 10 4 14 7 5 4 9 9 11 14 3 5 5 11 5 18 0 11-4 20-12 27z m-50 19c-3 2-6 3-8 5-1 2-2 4-2 7 0 3 1 5 2 7 2 1 5 3 8 4z m25-59c-3-3-6-5-11-6l0 29c5-2 9-4 11-7 3-2 3-5 3-8 0-3-1-6-3-8z"/>
<glyph glyph-name="card-diners" unicode="&#113;" d="M413 107l-320 0c-23 0-43 19-43 43l0 184c0 24 20 44 43 44l320 0c23 0 43-20 43-44l0-184c0-24-20-43-43-43z m-320 265c-20 0-37-17-37-38l0-184c0-21 17-38 37-38l320 0c20 0 37 17 37 38l0 184c0 21-17 38-37 38z m95-107c0-21 13-39 31-47l0 93c-18-7-31-25-31-46z m67 46l0-93c18 8 32 26 32 47-1 21-14 39-32 46z m20 39l-40 0c-48 0-87-35-87-86 0-47 39-85 87-85l40 0c46 0 89 38 89 85 0 51-43 86-89 86z m-38-163c-43 0-78 35-78 78 0 43 35 78 78 78 43 0 78-35 78-78 0-43-35-78-78-78z m-110-46c0-4 4-5 7-5 13 0 17 10 17 19 0 11-7 19-19 19-2 0-3 0-5 0z m-5 28c0 6-3 5-6 5l0 2c3 0 5 0 7 0 3 0 6 0 11 0 15 0 23-11 23-21 0-6-3-21-24-21-3 0-6 1-9 1-2 0-5 0-8-1l0 2c4 0 5 0 6 4z m44 2c-2 0-3 1-3 3 0 1 1 2 3 2 1 0 3-1 3-2 0-2-2-3-3-3m-7-35l1 0c2 0 3 0 3 2l0 16c0 3-1 3-3 4l0 1c3 1 6 2 7 2 0 0 0 0 1 0 0 0 0 0 0 0l0-23c0-2 1-2 3-2l1 0 0-2c-2 0-4 1-6 1-2 0-5 0-7-1z m19 18c0 2-1 2-4 3l0 2c3 0 5 1 8 2 0 0 1 0 1 0l0-4c3 3 6 4 10 4 5 0 7-3 7-8l0-15c0-2 1-2 2-2l2 0 0-2c-3 0-5 1-7 1-2 0-4 0-6-1l0 2 1 0c2 0 3 0 3 2l0 15c0 4-2 5-6 5-1 0-5-1-6-3l0-17c0-2 1-2 3-2l1 0 0-2c-2 0-4 0-7 0-2 0-4 0-6 0l0 2 1 0c2 0 3 0 3 2l0 16z m41-1c1 0 1 0 1 1 0 3-1 6-5 6-3 0-6-3-7-7z m-11-2c0-1 0-2 0-4 1-5 4-10 9-10 3 0 6 2 8 4l1-1c-3-3-6-6-11-6-10 0-12 9-12 13 0 11 8 15 12 15 5 0 10-3 11-10 0 0 0 0 0-1l-1 0z m19-15l1 0c2 0 3 0 3 2l0 17c0 1-2 2-3 2l0 1c5 2 7 3 8 3 0 0 0 0 0 0l0-6 0 0c2 3 4 6 8 6 1 0 3-1 3-3 0-1-1-3-3-3-1 0-1 2-3 2-1 0-5-2-5-5l0-14c0-2 1-2 3-2l3 0 0-2c-3 0-5 0-8 0-2 0-5 0-7 0l0 2z m23 7c0-4 3-8 7-8 4 0 5 3 5 5 0 7-13 4-13 14 0 3 3 7 9 7 2 0 5 0 7-1l0-6-1 0c-1 3-3 6-6 6-3 0-5-2-5-4 0-7 14-5 14-14 0-4-4-8-11-8-2 0-5 0-7 2l0 6z m70 22l-1 0c-1 7-6 10-13 10-7 0-17-5-17-19 0-12 9-21 18-21 6 0 11 4 12 11l1-1-1-9c-3-1-9-3-13-3-14 0-23 9-23 23 0 12 11 20 23 20 5 0 9-1 14-3z m2-29l2 0c1 0 2 0 2 2l0 33c0 4 0 4-3 5l0 1c3 0 5 1 6 2 1 0 1 1 2 1 0 0 0-1 0-1l0-41c0-2 1-2 3-2l1 0 0-2c-2 0-4 1-6 1-2 0-5 0-7-1l0 2z m39 2c0-1 0-1 1-1 1 0 2 0 3 0l0-2c-3 0-8-1-9-1l0 0 0 5c-4-3-7-5-11-5-3 0-6 2-6 7l0 15c0 1-1 3-4 3l0 1c2 0 7 1 8 1 0 0 0-1 0-2l0-15c0-2 0-7 6-7 2 0 4 1 7 3l0 16c0 2-3 2-5 3l0 1c5 0 9 1 9 1 0 0 0-1 0-1l0-22z m11 3c0-2 2-6 6-6 7 0 9 6 9 12 0 6-4 11-9 11-2 0-4-1-6-2l0-15z m0 16c3 2 6 4 9 4 7 0 11-5 11-12 0-8-5-15-14-15-4 0-7 1-8 2l-2-2-1 1c0 3 1 7 1 10l0 26c0 4-1 4-4 5l0 1c3 1 5 2 6 2 1 1 2 1 2 1 0 0 0-1 0-1l0-22z m20 8l0 0c1 0 1 0 1 1 0 0-1 0-1 0l0 0z m-2-2l0 0c1 0 1 0 1 0l0 3c0 0 0 0-1 0l0 0 2 0c1 0 2 0 2-1 0 0-1 0-1-1l0 0c1-1 1-1 1-1l0-1-1 0c0 0 0 1-1 2l0 0 0-1c0 0 0 0 0 0l0 0z m2-1c2 0 3 1 3 3 0 1-1 3-3 3-1 0-3-2-3-3 0-2 2-3 3-3m0 7c3 0 4-2 4-4 0-3-1-4-4-4-2 0-4 1-4 4 0 2 2 4 4 4"/>
<glyph glyph-name="card-elo" unicode="&#114;" d="M211 270c-10 0-19-8-19-19 0 0 0-1 0-2l33 14c-3 4-8 7-14 7m115-28c1 3 2 5 2 8 0 10-8 18-19 18-4 0-9-2-12-5l-9 11c6 5 13 8 21 8 18 0 33-14 33-32 0-5-1-10-3-14z m-16-25c-18 0-33 14-33 32 0 5 2 10 4 14l12-6c-1-3-2-5-2-8 0-10 8-18 19-18 5 0 9 1 13 5l9-10c-6-6-14-9-22-9m-38 1l-12 5c-5 2-6 4-6 10l0 62 11 0 0-60c0 0 1-1 1-1l10-4z m-88 14c-4 6-6 12-6 19 0 18 15 33 33 33 16 0 29-11 32-26z m13-11l7 12c8-5 16-4 24 2l10-10c-12-11-28-12-41-4m63 135c-58 0-106-47-106-106 0-59 48-106 106-106 59 0 106 47 106 106 0 59-47 106-106 106m161-244l-322 0c-24 0-43 19-43 43l0 186c0 24 19 43 43 43l322 0c23 0 43-19 43-43l0-186c0-24-20-43-43-43z m-322 267c-21 0-37-17-37-38l0-186c0-21 16-38 37-38l322 0c20 0 37 17 37 38l0 186c0 21-17 38-37 38z"/>
<glyph glyph-name="card-master" unicode="&#115;" d="M423 107l-318 0c-23 0-43 19-43 42l0 184c0 24 20 43 43 43l318 0c23 0 43-19 43-43l0-184c0-23-20-42-43-42z m-318 263c-20 0-37-16-37-37l0-184c0-20 17-37 37-37l318 0c20 0 37 17 37 37l0 184c0 21-17 37-37 37z m236-138c-1 0-2 0-3-1 0 0-1-1-2-2 0-1-1-2-1-4 0-1 1-2 2-2 0-1 1-1 3-1 0 0 1 0 1 0 1 0 1 0 1 1 2 0 2 1 3 2l2 8c-2 0-3 0-5-1 0 0-1 0-1 0m59 14c-1 0-1 0-2-1-1 0-1 0-2-1-1 0-2-2-3-3 0-2-1-3-1-5-1-3-1-5-1-7 0-2 0-4 1-5 1-1 2-1 4-1 1 0 1 0 2 0 0 0 0 0 1 1 1 0 1 1 2 1l3 20c0 0-1 0-2 0 0 1-1 1-2 1m-144 1c-1 0-1 0-2 0-1 0-2-1-3-2-1-1-2-3-3-6l12 0c0 1 1 1 1 1 0 1 0 1 0 1 0 2-1 4-2 5-1 0-2 1-3 1m-81-15c-1 0-2 0-2-1-2 0-2-1-3-2 0-1-1-2-1-4 0-1 1-2 1-2 1-1 2-1 4-1 0 0 1 0 1 0 1 0 1 0 2 1 1 0 2 1 3 2l1 8c-2 0-3 0-5-1 0 0-1 0-1 0m251 52l-132-23m35 74c-25 0-47-9-64-24-17 15-39 24-64 24-53 0-97-43-97-96 0-53 44-96 97-96 25 0 47 10 65 25l-1 0 1 0c0 0 1 1 3 3-1-1-3-2-4-3 17-16 39-25 64-25 53 0 96 44 96 97 0 52-43 95-96 95z m-34-92c-2 1-7 1-8-2l-4-26-9 0 6 39 9 0 0-4c2 2 4 3 7 4 0 0 0 0 0 0 1-1 2-4-1-11z m-30 67c2-2 5-5 8-8l-16 0c3 3 6 7 8 8z m-16-19l32 0c2-3 4-6 5-9l-43 0c2 4 6 9 6 9z m-10-21l52 0c1-3 2-6 3-9l-58 0c1 4 3 9 3 9z m11-45c1-2 3-2 5-2l2 0c1 0 3 0 5 1 2 1 4 2 5 3l1 0-2-10c-2-1-3-2-5-2-2-1-4-1-6-1l-1 0c-5 0-8 1-11 4-3 3-4 7-4 12 0 4 0 7 1 10 1 3 2 5 4 8 2 2 4 4 6 5 2 1 3 2 5 2 1 0 2 0 3 0 4 0 7-1 9-3 2-3 4-6 4-11 0-1-1-3-1-4 0-2 0-3-1-5l-21 0 0-1c0-3 1-5 2-6z m-107-10l6 33-13-33-6 0-2 35-6-35-9 0 8 51 12 0 4-30 13 30 11 0-8-51-10 0z m35 0l1 4c-1-1-1-1-2-2-1 0-1-1-2-1 0 0 0 0-1-1-1 0-1-1-2-1-1 0-2 0-4 0-2 0-4 1-6 2-1 2-2 5-2 7 0 4 1 6 2 8 1 2 2 4 5 5 2 2 4 3 7 3l2 0c2 1 4 1 7 1 0 0 0 0 0 1 0 0 0 0 0 1 0 1-1 3-2 3-1 1-2 1-5 1l0 0c-2 0-3 0-5-1-1 0-3-1-4-2l-1 0 1 10c2 0 3 0 5 1 2 0 2 0 4 0 1 0 2 0 3 0 5 0 8 0 10-2 2-1 3-4 3-7 0-1 0-1 0-2 0-1 0-1 0-2l-5-26z m35 22c5-2 5-8 5-11-1-4-1-12-15-12-8 0-12 1-12 1l2 9c0 0 10-3 12-1 2 1 5 4 1 6-4 2-11 5-11 12 0 7 3 11 7 13 4 2 12 2 18 0l-2-8-8 0c0 0-4-1-4-3-1-2 3-4 7-6z m23-22c-1 0-2-1-4-1-1 0-2 0-4 0-3 0-5 1-6 2-2 2-3 4-3 7 0 0 1 1 1 2 0 0 0 1 0 2l6 33 9 0-1-6 8 0-1-9-9 0-2-14c0-1-1-1-1-3 0-1 0-1 0-2 0-2 0-2 1-3 0 0 1-1 2-1 1 0 2 0 2 1 1 0 2 0 2 0l1 0z m3-7l53 1c-1-4-2-7-4-10l-45 0c-2 3-3 6-4 9z m16-29c-2 2-5 6-6 9l33 0c-2-3-4-6-6-9z m53 47c1-1 3-2 6-2 2 0 4 0 6 2 1 0 2 1 3 2l-2-12c0 0-1-1-2-1-1 0-2-1-3-1-1 0-3 0-5 0-5 0-9 2-11 5-2 2-3 4-4 7 0 0 0 0 0 0-1 3-1 6-1 10 1 4 2 9 2 11 0 0 0 0 0 1 1 4 3 7 5 10 2 3 5 6 8 7 3 2 6 3 9 3 3 0 5-1 7-1 2-1 4-2 4-2l-2-12c-2 1-3 2-4 3-1 1-3 2-5 2-4 0-7-2-10-6-2-5-3-10-3-16 0-5 0-8 2-10z m49 17c0-1 0-1 0-2l-4-26-10 0 1 4c-1-1-1-1-2-2l-1-1c-1 0-1-1-1-1-1 0-2-1-3-1-1 0-2 0-3 0-3 0-5 1-6 2-2 2-2 4-2 7 0 3 0 6 1 8 1 2 3 4 5 5 2 2 4 2 7 3 1 0 1 0 2 0 2 1 4 1 7 1 0 0 0 0 0 1 0 0 0 0 0 1 0 1-1 2-1 3-2 1-3 1-5 1l-1 0c-1 0-3 0-4-1-2 0-4-1-5-2l0 0 1 10c1 0 3 0 5 1 1 0 2 0 3 0 1 0 2 0 3 0 5 0 8 0 10-2 2-1 3-4 3-7 0-1 0-1 0-2z m15-2l-4-26-9 0 6 38 9 0 0-3c2 2 4 4 9 3 0 0-3-5-3-10-2 1-7 1-8-2z m27-26l1 4c-1-1-2-2-2-2-1-1-2-1-3-2 0 0-1-1-2-1 0 0-1 0-2 0-3 0-5 1-7 3-2 3-2 6-2 11 0 4 0 7 1 10 1 3 2 6 3 9 2 2 4 4 6 5 2 2 3 2 6 3l0 0c2 0 3-1 4-1 1 0 2-1 4-2l2 13 9 0-9-51z"/>
<glyph glyph-name="card-paypall" unicode="&#116;" d="M328 304l-1 0c5-9 7-21 4-37-8-35-36-56-70-56l-21 0c-8 0-15-5-17-12l23 105 81 0c-8 15-25 22-40 22l-85 0-37-171 49 0 5 23-5-24-2 0-5-21 49 0 10 43c1 8 8 13 16 13l21 0c34 0 63 21 70 56 9 41-21 59-45 59m76-218l-321 0c-24 0-43 20-43 44l0 186c0 24 19 43 43 43l322 0c24 0 43-19 43-43l0-186c0-24-20-44-44-44z m-321 267c-20 0-37-16-37-37l0-186c0-21 17-38 37-38l322 0c20 0 37 17 37 38l0 186c0 21-17 37-37 37z"/>
<glyph glyph-name="card-stelo" unicode="&#117;" d="M166 223c-5-3-10-6-15-9-6 11-16 16-28 14-6-1-11-4-14-10 5-3 9-5 14-7 9-4 19-7 28-11 9-4 13-12 10-22-10 4-21 9-31 13-12 5-25 11-37 16-5 2-6 5-5 9 3 14 10 23 23 28 20 8 46-2 55-21m27 7c0-16 0-31 0-46 0-2 2-4 4-4 3-2 7-3 11-5-3-5-5-11-7-17-6 3-12 5-17 8-5 3-8 8-8 13 0 27 0 54 0 80 0 3 1 4 4 5 12 0 13 0 12-12 0-4 2-6 6-5 0 0 1 0 2 0 11 0 13-2 11-14-1-1-3-3-4-3-4 0-9 0-14 0m148-55c-2-5-4-9-6-13-1-3-2-3-4-2-4 1-8 3-11 4-8 4-11 10-11 18 0 25 0 50 0 76 0 4 1 6 6 6 11-1 11 0 11-12 0-22 0-44 0-66 0-4 2-6 5-7 3-1 6-2 10-4m76-5c-11-10-24-13-38-11-26 5-42 33-33 58 1 3 3 5 6 3 1-1 3-1 4-2 7-4 7-4 6-12-1-11 2-19 11-25 9-6 19-6 28-1 4 3 6 2 8-1 3-3 5-6 8-9m-269-6c-25-13-53 0-60 19 4 3 8 5 13 7 1 0 3-1 4-2 8-11 17-14 31-10 2 1 4 0 5-1 3-4 4-8 7-13m128 19c4-4 8-8 12-12-9-13-39-17-53-5 2 4 5 8 8 12 0 1 3 1 4 1 10-5 20-3 29 4m151 0c-1 0-2 1-4 2 0 0-1 0-1 1-1 0-1 0-2 0-8 4-8 5-7 14l0 0c1 10-3 18-11 24-8 6-18 6-27 1-4-2-7-3-10 2-2 2-4 4-6 6-1 1-1 2-2 3l-1 1 1 1c12 10 25 14 40 11 13-2 24-10 31-22 7-12 9-26 4-39-1-2-2-4-4-5 0 0 0 0-1 0z m-39 49c5 0 11-2 16-5 9-7 13-16 12-27l0-1c-1-3-1-5 0-7 0-1 2-1 6-3 0 0 0-1 1-1 1 0 1 0 2-1 1-1 2-1 2-1 1 0 2 1 2 3 4 12 3 25-3 36-7 11-18 19-30 21-13 2-25-1-36-10 1 0 1-1 2-1 2-3 3-5 5-7 2-3 3-3 7-1 5 3 9 5 14 5z m-132-23c-7-2-15-5-24-8 0 11 6 21 16 25l0 0c0 0 0 0 0 0 11 4 23 1 30-8-7-3-14-6-22-9m-2 37c-4-1-7-1-10-2l0 0c-4-2-8-4-12-6-16-11-23-36-14-55 1-1 3-2 5-2 12 5 24 9 37 14l0-1c12 5 25 10 38 15 1 1 3 4 2 5-5 20-26 35-46 32m168-163l-318 0c-23 0-43 19-43 43l0 183c0 24 20 43 43 43l318 0c23 0 43-19 43-43l0-183c0-24-20-43-43-43z m-318 263c-20 0-37-16-37-37l0-183c0-21 17-38 37-38l318 0c20 0 37 17 37 38l0 183c0 21-17 37-37 37z"/>
<glyph glyph-name="card-visa" unicode="&#118;" d="M417 110l-315 0c-24 0-43 19-43 42l0 183c0 23 19 42 43 42l315 0c24 0 43-19 43-42l0-183c0-23-19-42-43-42z m-315 262c-21 0-37-17-37-37l0-183c0-20 16-37 37-37l315 0c21 0 37 17 37 37l0 183c0 20-16 37-37 37z m106-188l25 0 16 102-25 0z m94 61c-9 5-15 8-15 13 0 4 5 8 15 8 8 1 15-1 19-3l3-2 3 22c-5 2-13 5-23 5-25 0-44-14-44-34 0-14 13-22 23-27 10-5 13-9 13-13 0-7-8-10-15-10-11 0-16 2-24 6l-4 1-3-23c6-2 17-5 28-5 28 0 45 14 45 35 1 11-6 20-21 27z m92 41l-20 0c-7 0-11-2-14-9l-38-93 27 0c0 0 4 13 5 15 3 0 29 0 33 0 1-3 3-15 3-15l24 0z m-32-66c2 5 10 28 10 28 0 0 2 6 4 10l1-9c0 0 5-23 6-29z m-176 66l-25-69-3 14-9 46c-1 7-6 9-12 9l-42 0 0-2c10-3 19-7 27-11l23-89 27 1 41 101-27 0z"/>
<glyph glyph-name="celphone" unicode="&#119;" d="M347 417l-152 0c-24 0-43-20-43-44l0-260c0-24 19-44 43-44l152 0c24 0 44 20 44 44l0 260c0 24-20 44-44 44z m-108-22l65 0c6 0 11-5 11-11 0-6-5-11-11-11l-65 0c-6 0-11 5-11 11 0 6 5 11 11 11z m32-310c-9 0-17 7-17 17 0 9 8 16 17 16 10 0 17-7 17-16 0-10-7-17-17-17z m76 49l-152 0 0 218 152 0z"/>
<glyph glyph-name="cesta" unicode="&#120;" d="M337 274l-142 0-15-22-14 10 8 12-25 0 0-22 227 0 0 22-18 0 9-12-14-10z m-154-118l159 0 15 79-189 0z m115 59l17 0 0-41-17 0z m-32 0l17 0 0-41-17 0z m-31 0l17 0 0-41-17 0z m-31 0l17 0 0-41-17 0z m58 229c-106 0-192-86-192-193 0-106 86-192 192-192 107 0 193 86 193 192 0 107-86 193-193 193z m131-209l-19 0-18-96-187 0-18 96-19 0 0 57 55 0 53 74 14-10-46-65 117 0-46 65 14 10 53-74 47 0z"/>
<glyph glyph-name="check" unicode="&#121;" d="M483 402c0 49-38 84-87 84l-292 0c-1 0-3 0-4 0l-1 0c-15 0-29-5-41-12-23-12-39-33-43-60-2-6-3-13-3-20l0-293c0-48 39-83 87-83l293 0c1 0 2 0 3 0l1 0c15 0 30 4 42 11 22 13 39 34 43 60 1 7 2 14 2 21l0 292z m-411-300l0 292c0 12 6 24 16 29 5 2 17 3 17 3l291 0c16 0 27-8 27-24l0-292c0-12-6-24-16-30-4-2-10-3-15-3l-293 0c-16 0-27 8-27 25z"/>
<glyph glyph-name="checked" unicode="&#122;" d="M423 102c0-17-15-25-31-25l-293 0c-16 0-27 8-27 25l0 292c0 16 11 32 27 32l212 0 59 60-271 0c-48 0-87-44-87-92l0-293c0-48 39-83 87-83l293 0c48 0 90 35 90 83l0 133-59-59z m-139 23l-138 155c-13 17-10 43 10 59 20 14 53 10 69-6l59-66 153 185c13 20 43 23 66 10 23-13 26-40 10-59z"/>
<glyph glyph-name="company" unicode="&#65;" d="M76 325l0-166c0-26 21-47 47-47l0 261c-26 0-47-22-47-48z m332 48l0-261c27 0 48 21 48 47l0 166c0 26-22 48-48 48z m-71 35c0 19-17 36-35 36l-72 0c-19 0-35-17-35-36l0-35-48 0 0-261 238 0 0 261-48 0z m-119-11l95 0 0-24-95 0z"/>
<glyph glyph-name="corporate" unicode="&#66;" d="M291 284l0-195 41 0 0 87 62 0 0-87 41 0 0 195z m0 22l144 0 0 21-144 0z m-164-87l41 0 0-43-41 0z m82 0l41 0 0-43-41 0z m-82 87l41 0 0-44-41 0z m82 0l41 0 0-44-41 0z m-82 86l41 0 0-43-41 0z m82 0l41 0 0-43-41 0z m-102-303l164 0 0 347-164 0z"/>
<glyph glyph-name="correct" unicode="&#67;" d="M408 408l-209-172-96 71-38-42 118-137 20-24 22 23 222 240z"/>
<glyph glyph-name="docment-list" unicode="&#68;" d="M428 151l-66 0 0-66-111 0 0 199 177 0 0-133z m-44-57l0 35 35 0z m-221 256l177 0 0-22-177 0z m66 44l44 0 0-22-44 0z m155-88l0 55c0 6-5 11-11 11l-78 0 0 22c0 13-10 23-22 23l-44 0c-12 0-22-10-22-23l0-22-77 0c-7 0-12-5-12-11l0-221c0-6 5-11 12-11l99 0 0-66 155 0 66 66 0 177z"/>
<glyph glyph-name="edit" unicode="&#69;" d="M400 120c0-12-11-18-23-18l-214 0c-12 0-20 6-20 18l0 214c0 12 8 24 20 24l107 0 43 43-150 0c-36 0-64-32-64-67l0-215c0-35 28-61 64-61l214 0c36 0 66 26 66 61l0 151-43-43z m-132 105c8-8 21-8 29 0l144 144c8 8 8 21 0 29-8 8-21 8-29 0l-144-144c-7-8-7-21 0-29z m-35-35l40 0-40 40z"/>
<glyph glyph-name="ex" unicode="&#70;" d="M407 150l-84 84 84 85-56 56-85-84-84 84-57-56 85-85-85-84 57-57 84 85 85-85z"/>
<glyph glyph-name="exit" unicode="&#71;" d="M471 249l-86 79 0-59-125 0 0-39 125 0 0-59z m-128-153l-256 0 0 307 256 0 0-96-41 0 0 57-173 0 0-229 173 0 0 57 41 0z"/>
<glyph glyph-name="exit2" unicode="&#72;" d="M309 141l-62 0 0 219-135 61 197 0z m-131 77c2 6 14 7 27 2 13-5 22-14 19-20-2-6-14-7-27-2-13 5-21 14-19 20m172 141l-10-11 68-74-85 0 0 162-244 0 0-310 2 0 0-1 166-76 0 77 76 0 0 133 86 0-71-76 10-11 88 94z"/>
<glyph glyph-name="eyes" unicode="&#73;" d="M484 264c0 0-99 108-221 108-123 0-225-108-222-108 0 0 99-108 221-108 123 0 225 108 222 108z m-222-90c-102 0-185 90-185 90-3 0 83 90 185 90 103 0 186-90 186-90 3 0-83-90-186-90z m80 90c0-44-35-80-80-80-44 0-79 36-79 80 0 44 35 80 79 80 45 0 80-36 80-80z"/>
<glyph glyph-name="facebook" unicode="&#74;" d="M203 361c0-11 0-59 0-59l-43 0 0-71 43 0 0-196 88 0 0 196 59 0c0 0 5 34 8 72-8 0-67 0-67 0 0 0 0 41 0 49 0 7 10 17 19 17 10 0 30 0 48 0 0 9 0 43 0 74-25 0-53 0-65 0-92 0-90-71-90-82z"/>
<glyph glyph-name="filter" unicode="&#75;" d="M397 387l20 28-302 0 108-174 0-170 86 43 0 127 13 19c9-4 19-6 30-6 41 0 76 34 76 75-2 24-13 45-31 58z m-45-112c-6 0-13 3-19 5l56 90c9-11 15-26 15-41 0-30-24-54-52-54z"/>
<glyph glyph-name="frete" unicode="&#76;" d="M230 261l-6-5 4-7 34-59 4-7 7 4 72 53 6 4-4 7-34 60-4 7-7-5z m14-10l7 6 7-28z m27-45l-1 1-12 54 7 6 13-56z m13 10l-12 55 7 5 13-55z m14 10l-12 55 7 6 13-56z m33 23l-5-3-4 18z m-21 37l10-45-8-5-12 55 4 4z m-96-13l4-7 6 4 73 53 6 4-4 7-35 60-4 7-6-5-72-52-6-5 4-7z m69 59l-5-3-4 18z m-27 46l5-10 11-44-8-5-12 55z m-11-8l13-56-8-5-12 55z m-14-10l13-56-8-5-12 55z m-14-11l13-55-7-5-1 1-12 54z m-14-10l7-28-14 23z m261-121c-7 13-21 18-33 11-12-7-17-23-11-37 7-13 21-18 33-11 12 7 17 23 11 37z m-182-65l166 96-10 21c0 0-161-93-175-102-10 15-135 201-135 201l-67-39 9-21c0 0 40 23 52 30 8-12 88-132 121-181-1 0-1 0-1 0-18-11-25-36-16-56 9-20 32-28 50-18 18 11 25 36 15 56-2 5-5 10-9 13z"/>
<glyph glyph-name="guardian" unicode="&#77;" d="M326 338c-45 0-68 45-68 45 0 0-22-45-68-45-45 0-90 67-90 67l0-45c0-23 0-66 0-113 0-67 45-157 158-202 113 45 158 135 158 202 0 47 0 90 0 113l0 45c0 0-45-67-90-67z m45-91c0-50-35-116-113-153-78 37-113 103-113 153l0 56c14-6 29-11 46-11 27 0 49 10 67 23 18-13 41-23 68-23 16 0 31 5 45 11l0-56z m-113-128c62 34 90 88 90 128l0 25c-7-1-15-2-22-2-24 0-47 6-68 19"/>
<glyph glyph-name="heard" unicode="&#78;" d="M375 319c-35 35-92 36-129 2-37 34-94 33-129-2-37-37-37-95 0-131 10-11 108-107 108-107 11-12 30-12 42 0 0 0 107 105 108 107 37 36 37 94 0 131z m-14-118l-108-107c-4-4-10-4-14 0l-108 107c-29 29-29 75 0 104 28 27 73 28 102 2l13-12 13 12c30 26 74 25 102-2 29-29 29-75 0-104z m-181 96c-23 0-41-19-41-42 0-3 2-5 4-5 3 0 5 3 5 5 0 18 14 32 32 32 3 0 5 2 5 5 0 3-2 5-5 5z"/>
<glyph glyph-name="home" unicode="&#79;" d="M255 385l-140-131 0-189 92 0 0 79 93 0 0-79 93 0 0 189z m18 45l-18 13-24-18-172-154 18-23 178 158 153-139 25-19 18 23z m-112-51l0 34-46 0 0-78z"/>
<glyph glyph-name="instagran" unicode="&#80;" d="M122 414l269 0c25 0 46-21 46-46l0-269c0-25-21-46-46-46l-269 0c-25 0-46 21-46 46l0 269c0 25 20 46 46 46z m217-40c-9 0-16-7-16-16l0-39c0-9 7-17 16-17l41 0c9 0 16 8 16 17l0 39c0 9-7 16-16 16z m57-113l-32 0c3-10 5-20 5-31 0-60-50-109-112-109-62 0-113 49-113 109 0 11 2 21 5 31l-33 0 0-152c0-8 6-15 14-15l252 0c8 0 14 7 14 15l0 152z m-139 44c-40 0-73-32-73-71 0-39 33-70 73-70 40 0 72 32 72 70 0 39-32 71-72 71z"/>
<glyph glyph-name="key" unicode="&#81;" d="M323 411c-56 0-102-45-102-102 0-6 1-12 2-19l-124-124 0-61c0-11 9-20 20-20l21 0 0 20 40 0 0 41 41 0 0 41 41 0 27 26c10-4 22-6 34-6 57 0 102 46 102 102 1 57-45 102-102 102z m31-102c-17 0-31 14-31 31 0 17 14 30 31 30 17 0 31-13 31-30 0-17-14-31-31-31z"/>
<glyph glyph-name="linkedin" unicode="&#82;" d="M452 222l0-139-81 0 0 130c0 33-12 55-41 55-22 0-36-15-41-30-2-5-3-12-3-19l0-136-81 0c0 0 1 220 0 243l81 0 0-35c0 0 0 0-1 0l1 0 0 0c11 17 30 41 73 41 53 0 93-35 93-110z m-331 221c-28 0-46-18-46-42 0-23 18-42 45-42l0 0c28 0 46 19 46 42-1 24-18 42-45 42z m-41-360l81 0 0 243-81 0z"/>
<glyph glyph-name="list" unicode="&#83;" d="M386 379l-22 0 0-22 11 0 0-174-87 0 0-87-131 0 0 261 11 0 0 22-21 0c-6 0-11-5-11-11l0-283c0-6 4-11 11-11l171 0 79 79 0 215c0 6-5 11-11 11z m-76-283l0 65 65 0z m44 283l-44 0 0 22c0 12-10 22-22 22l-43 0c-13 0-22-10-22-22l0-22-44 0 0-43 174 0 0 43z m-66 0l-43 0 0 22 43 0z m-101-93l156 0 0-20-156 0z m0-46l99 0 0-20-99 0z"/>
<glyph glyph-name="list-ok" unicode="&#84;" d="M401 381l-20 0 0-20 10 0 0-161-81 0 0-80-120 0 0 241 10 0 0 20-20 0c-6 0-10-5-10-10l0-261c0-6 4-10 10-10l158 0 73 73 0 198c0 6-5 10-10 10z m-71-261l0 60 61 0z m41 261l-41 0 0 20c0 11-9 20-20 20l-40 0c-11 0-20-9-20-20l0-20-40 0 0-40 161 0z m-61 0l-40 0 0 20 40 0z m32-61l-70-57-31 24-13-14 39-46 7-8 7 8 74 80z"/>
<glyph glyph-name="lock" unicode="&#85;" d="M347 292l-127 0 0 33c0 32 29 58 63 58 35 0 64-26 64-58z m-46-168l-42 0 11 55c-6 3-11 9-11 17 0 11 10 20 21 20 12 0 21-9 21-20 0-8-4-14-10-17z m96 168l0 33c0 59-51 106-114 106-62 0-113-47-113-106l0-33-26 0 0-216 279 0 0 216z"/>
<glyph glyph-name="mail" unicode="&#86;" d="M265 212l163 143c-2 0-2 0-4 0l-317 0c-1 0-2 0-2 0z m182 121c0 3-1 5-1 7l-115-101 113-98c2 3 3 6 3 10l0 182z m-361 9c-2-3-2-6-2-9l0-182c0-3 1-6 2-9l114 98z m228-118l-49-43-48 43-112-95c1 0 1-1 2-1l316 0z"/>
<glyph glyph-name="mailopen" unicode="&#87;" d="M92 284l43 22 0-22z m344 0l-43 22 0-22z m-43-29l0 77-81 81-177 0 0-158-43 29 0-182 85 74 25 22 8 7-53 36 0 151 146 0 4-5 0-60 60 0 5-4 0-82-54-36 9-7 24-22 85-74 0 182z m-99-57l-60 0-24-22-99-86 306 0-99 86z"/>
<glyph glyph-name="menu" unicode="&#88;" d="M20 446l471 0 0-43-471 0z m0-162l471 0 0-43-471 0z m0-161l471 0 0-43-471 0z"/>
<glyph glyph-name="menu2" unicode="&#89;" d="M408 313l-187 0c-16 0-28-13-28-29 0-15 12-28 28-28l186 0c16 0 29 13 29 28 0 16-13 29-28 29z m0-114l-187 0c-16 0-28-13-28-29 0-15 12-28 28-28l186 0c16 0 29 13 29 28 0 16-13 29-28 29z m-290 114l-4 0c-15 0-28-13-28-29 0-15 13-28 28-28l4 0c16 0 29 13 29 28 0 16-13 29-29 29z m0-114l-4 0c-15 0-28-13-28-29 0-15 13-28 28-28l4 0c16 0 29 13 29 28 0 16-13 29-29 29z"/>
<glyph glyph-name="micphone" unicode="&#90;" d="M317 331c0-24 0-48 0-72 0-34-25-60-59-64-25-3-56 18-63 43-2 7-3 15-3 23-1 47 0 94-1 142 0 36 30 68 69 65 29-2 56-29 57-59 0-26 0-52 0-78z m-148-290c0 13 0 26 0 39 22 0 43 0 64 0 0 3 1 5 1 7 0 12 0 23 0 34 1 7-3 8-8 9-49 7-86 39-98 86-3 10-4 21-4 31-1 16 0 33 0 50 13 0 26 0 40 0 0-3 0-6 0-9 0-20-1-41 2-60 5-32 34-57 66-59 17-1 35 0 52 2 30 4 56 31 58 61 2 18 2 37 2 55 0 3 0 6 0 10 14 0 27 0 40 0 0-37 5-75-15-109-20-33-48-53-86-58-3 0-5-1-8-2 0-16 0-31 0-47 21 0 42 0 63 0 0-14 0-27 0-40-56 0-112 0-169 0z"/>
<glyph glyph-name="minus" unicode="&#48;" d="M78 288l367 0 0-59-367 0z"/>
<glyph glyph-name="newletter" unicode="&#49;" d="M429 279l-21 0 0-1-6-3 0 139c0 30-25 55-55 55l-166 0c-31 0-56-25-56-55l0-136-20 1-21 0 0-196c0-31 25-56 55-56l249 0c31 0 56 25 56 56l0 196z m-268 81l0 54 0 0c0 11 9 20 20 20l166 0c11 0 19-9 20-20l0 0 0-157-103-51-103 53z m247-277c0-11-9-20-20-20l-249 0c-11 0-20 9-20 20l0 158 144-75 145 73z m-132 327c-21 0-41-9-55-24-14-15-21-35-21-57 0-38 27-65 64-65 15 0 26 2 37 8l2 1-5 14-3-2c-7-4-18-6-29-6-29 0-49 20-49 52 0 42 29 64 58 64 28 0 46-18 46-48 0-21-10-34-19-34l0 0c-2 0-2 1-3 1-1 2-3 6 0 18l7 39-2 1c-6 3-14 4-23 4-14 0-27-5-36-15-9-10-14-22-14-35 0-17 10-28 24-28 12 0 21 4 28 13 0-3 2-6 4-8 3-4 8-5 13-5 10 0 20 4 27 13 8 10 12 22 12 37-1 36-26 62-63 62z m3-50c2 0 5 0 7 0l-4-21c-2-12-12-25-22-25-10 0-11 9-11 13 0 18 14 33 30 33z"/>
<glyph glyph-name="order" unicode="&#50;" d="M249 133l-69-68-69 68z m-91 242l44 0 0-246-44 0z m110-2l153 0 0-41-153 0z m0-81l110 0 0-41-110 0z m0-84l68 0 0-41-68 0z"/>
<glyph glyph-name="pedidos" unicode="&#51;" d="M255 446c-106 0-193-86-193-193 0-106 87-193 193-193 107 0 193 87 193 193 0 107-86 193-193 193z m94-274l-34-34-154 0 0 230 188 0z m-46 12l29 0 0 167-153 0 0-196 124 0z m-102 139l109 0 0-17-109 0z m0-32l109 0 0-17-109 0z m0-31l109 0 0-17-109 0z m0-32l109 0 0-17-109 0z"/>
<glyph glyph-name="phone" unicode="&#52;" d="M408 99l-50 80c-4 6-12 8-18 4l-26-22c-12-6-24 7-44 33l-43 68c-9 18-16 36-4 45l30 15c6 4 7 12 4 18l-51 80c-4 6-12 8-18 4l-26-20c-16-14-54-77 29-211 86-139 164-136 183-127l30 15c7 4 8 12 4 18z"/>
<glyph glyph-name="pin" unicode="&#53;" d="M266 202c-52 0-95 43-95 96 0 52 43 95 95 95 53 0 96-42 96-95 0-53-43-96-96-96m119 96c0 65-53 118-119 118-65 0-118-53-118-118 0-42 22-79 55-100l63-78 63 78c34 21 56 58 56 100m-70-138l-8-8c27-4 45-13 45-22 0-14-40-25-89-25-49 0-88 11-88 25 0 10 20 18 50 22l-8 8c-49-7-83-23-83-42 0-26 59-46 133-46 73 0 132 20 132 46 0 19-35 35-84 42"/>
<glyph glyph-name="pin2" unicode="&#54;" d="M255 237c-36 0-66 28-66 64 0 35 30 64 66 64 36 0 65-29 65-64 0-36-30-64-65-64m0 172c-63 0-114-50-114-111 0-32 32-88 32-88l78-130 82 129c0 0 36 53 36 89 0 61-51 111-114 111"/>
<glyph glyph-name="plus" unicode="&#55;" d="M445 288l-154 0 0 155-59 0 0-155-154 0 0-59 154 0 0-154 59 0 0 154 154 0z"/>
<glyph glyph-name="quest" unicode="&#56;" d="M269 370c-104 0-187-54-187-123 0-54 52-99 125-116 0 0 21-10-14-46-14-15 58 23 73 33 5 4 7 5 11 6 4 0 8 0 9 1 95 5 169 58 169 122 0 68-83 123-186 123z m25-231c-1 0-4 0-7-1-4-1-5 2-9-1-12-8-48-35-68-42 27 28 14 49 14 49-58 14-117 53-117 96-3 64 70 115 173 111 83 0 149-60 149-114 0-51-59-93-135-98z m-35 19l0 31 31 0 0-31z m56 147c-9 8-22 12-37 12l0 0c-7 0-14-1-21-2-7-2-13-3-18-5l-4-2 0-29 8 0 2 1c3 2 8 4 13 6 6 2 12 3 18 3 7 0 13-2 16-4 4-3 6-7 6-12 0-5-1-8-3-11-2-3-4-6-8-9l0 0c-2-3-6-6-11-8-5-3-9-6-13-8l-3-2 0-38 28 0 0 24c5 3 9 5 13 8 5 4 10 7 13 11 5 5 8 10 10 15 3 6 4 12 4 19 1 13-4 23-13 31z"/>
<glyph glyph-name="reload" unicode="&#57;" d="M244 135c-29 0-55 13-74 33l39 41-104 0 0-110 41 43c25-27 60-43 98-43 60 0 111 39 130 95l-32 13c-15-42-53-72-98-72m99 215c-26 27-60 43-99 43-60 0-110-40-130-96l32-12c15 41 53 71 98 71 29 0 55-12 74-32l-39-41 105 0 0 110z"/>
<glyph glyph-name="sacola" unicode="&#33;" d="M279 341c-1 0-2 0-3 0-2 3-3 7-4 11-1 7 0 13 1 19 1 4 2 8 2 12 1 11 2 33-23 52-13 10-31 5-37 4-27-9-40-53-31-84 2-7 5-14 9-20-1-3-2-5-2-9 0-8 7-14 15-14 9 0 15 6 15 14 0 9-6 15-15 15-2 0-3 0-5-1-3 5-6 11-8 18-9 31 7 66 25 72 3 1 19 5 29-3 20-16 20-34 19-44 0-4-1-7-1-10-2-7-3-14-1-23 0-5 2-9 4-14-3-2-4-6-4-10 0-8 7-14 15-14 9 0 16 6 16 14-1 9-8 15-16 15z m134-253l-14 276-29-12 9-231c3-2 13-9 22-14l-5-8c-11 7-18 11-22 14-3-5-10-14-16-22l-8 6c0 0 5 6 10 13 5 6 7 9 9 12l-3 231-19 5-208 4-22-270 217-21 0-1z m-286 12l21 252 195-3-8-269z m125 316l-7 7c-2-3-3-7-5-12-6-17-8-35-7-54l9 0c-1 18 1 35 7 51 1 3 2 6 3 8z m60 11c-3 4-9 11-20 14-5 2-17 5-30-1l0-1c-1 0-2-1-4-2l7-7c0 1 1 1 1 1l1 0c9 5 18 3 22 2 8-3 13-8 16-12 8-10 9-26 9-38 1-13-2-25-2-26l9-3c2 5 9 49-9 73z"/>
<glyph glyph-name="save" unicode="&#34;" d="M228 165l35 0 0-35-35 0z m-106 212l0-282 246 0 36 35 0 247-282 0z m194-264l-106 0 0 70 106 0z m35 123l-176 0 0 123 176 0z"/>
<glyph glyph-name="search" unicode="&#35;" d="M344 207c18 26 27 58 25 91-2 35-17 67-42 92-27 27-63 42-101 42-39 0-75-15-102-42-56-56-56-147 0-203 28-27 63-42 102-42 29 0 58 9 81 26l100-100 37 36z m-7 82c0-30-11-58-33-79-20-21-48-32-78-32-30 0-57 11-78 32-21 21-33 49-33 79 0 29 12 57 33 78 21 21 48 33 78 33 30 0 58-12 78-33 21-21 33-49 33-78z"/>
<glyph glyph-name="search-bar" unicode="&#36;" d="M418 155c-36-40-99-42-139-6-40 36-42 99-6 139 37 40 99 42 139 6 40-38 42-99 6-139z m-128 118c-29-31-26-80 4-108 31-28 80-26 108 5 29 31 26 80-5 108-32 27-80 25-107-5z m69-3c-2-2-5-3-8-2-1 0-20 6-40-15-19-21-13-43-13-44 1-4-1-7-5-8-4-1-7 1-8 5 0 1-9 30 15 55 26 28 54 19 55 19 4 0 6-4 5-8 0-1-1-2-1-2z m68-124c-5-6-11-10-18-14l44-41c9-8 23-7 32 1 9 9 8 23-1 32l-44 40c-4-6-8-12-13-18z m-339 252l75 0 0-279-75 0z m91 0l20 0 0-279-20 0z m86-260c-47 43-51 116-8 164 6 7 12 12 19 17l0 79-67 0 0-279 67 0 0 9c-4 4-8 7-11 10z m62 201l0 59-35 0 0-70c11 6 23 9 35 11z m95-29c1-1 3-3 4-4l0 92-82 0 0-58c28 0 56-10 78-30z"/>
<glyph glyph-name="section2" unicode="&#37;" d="M388 401l-77 0c-18 0-43-10-56-23l-129-129c-13-13-13-34 0-47l96-96c13-12 34-12 46 0l129 129c13 13 24 38 24 56l0 77c0 18-15 33-33 33z m-44-110c-18 0-33 15-33 33 0 19 14 33 33 33 18 0 33-14 33-33 0-18-15-33-33-33z m-266-73l117-117c-12-7-28-5-39 6l-96 96c-13 12-13 33 0 46l129 129c13 13 38 23 56 23l-167-168c-5-4-5-11 0-15z"/>
<glyph glyph-name="sessction" unicode="&#38;" d="M383 414l-80-1c-18 0-45-11-58-24l-135-131c-13-13-13-35 0-47l100-96c14-13 36-13 49 0l134 132c14 13 25 38 25 57l0 77c0 18-16 33-35 33z m-45-111c-19 0-35 14-35 33 0 18 16 33 35 33 19 0 34-14 34-32 0-19-15-34-34-34z"/>
<glyph glyph-name="ship" unicode="&#39;" d="M340 401l-200 0c-16 0-30-13-33-28l-27-175c-3-15-7-28 8-28l28 0c0 1 0 2 0 3 0 24 23 44 51 44 28 0 51-20 51-44 0-1 0-2 0-3l104 0 42 203c2 15-9 28-24 28z m156-159l-44 93c-1 2-2 3-4 3l-69 2c-2 0-4-2-5-4l-32-161c-1-3 2-6 5-6l14 0c0 1 0 1 0 1 0 25 23 44 51 44 28 0 51-19 51-44 0 0 0-1 0-2l22 0c3 0 5 2 5 5l7 66c0 1 0 2-1 3z m-28 13l-77 21c-6 1-9 6-8 12l6 27c1 3 4 6 8 6l45 0c2 0 3-1 4-3l27-57c1-3-2-7-5-6z m-264-88c0-21-17-38-38-38-20 0-37 17-37 38 0 21 17 38 37 38 21 0 38-17 38-38z m245 0c0-21-16-38-37-38-21 0-38 17-38 38 0 21 17 38 38 38 21 0 37-17 37-38z m-376 160l-50 0c-5 0-8 3-7 7l5 17c1 4 5 7 10 7l50 0c4 0 7-3 6-7l-4-17c-1-4-6-7-10-7z m-6-57l-39 0c-4 0-6 3-5 7l3 17c1 4 5 7 8 7l39 0c4 0 6-3 5-7l-3-17c-1-4-4-7-8-7z m-6-54l-27 0c-2 0-4 3-3 7l2 17c1 4 3 7 6 7l26 0c3 0 4-3 4-7l-3-17c0-4-3-7-5-7z"/>
<glyph glyph-name="skype" unicode="&#40;" d="M413 219c1 8 2 16 2 24 0 84-68 152-152 152-8 0-16-1-23-2-14 8-31 13-48 13-51 0-92-41-92-91 0-18 5-34 13-48-1-8-1-16-1-24 0-84 67-151 151-151 8 0 16 0 24 1 14-8 30-13 48-13 51 0 91 41 91 91 0 18-4 34-13 48z m-78-45c-6-9-16-16-28-21-12-6-27-8-44-8-20 0-36 3-50 11-9 5-17 11-23 20-5 9-8 17-8 25 0 5 1 9 5 13 4 3 8 5 14 5 4 0 8-2 11-4 3-3 6-7 8-12 3-6 5-11 8-15 3-4 7-7 13-10 5-3 12-4 21-4 12 0 22 3 29 8 8 5 11 11 11 19 0 6-1 11-5 15-4 4-10 7-16 9-7 2-15 4-26 6-15 4-27 7-37 12-10 4-18 10-24 17-6 8-9 17-9 28 0 10 3 20 10 28 6 8 15 15 27 19 11 4 25 6 41 6 12 0 23-1 32-4 9-3 17-7 23-12 6-4 11-9 14-15 2-5 4-10 4-15 0-5-2-9-5-13-4-4-9-6-14-6-5 0-8 1-11 4-3 2-5 6-8 11-4 7-8 12-13 16-5 4-13 6-25 6-11 0-19-2-25-6-7-5-10-10-10-16 0-3 1-6 3-9 2-3 5-5 9-7 4-2 8-3 12-4 4-2 10-3 20-5 11-3 21-6 31-9 9-3 17-6 24-11 6-4 12-10 15-16 4-7 6-15 6-25 0-11-3-22-10-31z"/>
<glyph glyph-name="star" unicode="&#41;" d="M257 413c4 12 11 12 16 0l33-97c4-13 19-23 32-23l102-2c14-1 16-7 5-15l-81-62c-11-8-16-25-12-38l29-98c4-12-2-17-13-9l-83 58c-11 8-29 8-40 0l-84-58c-11-8-17-3-13 9l30 98c4 13-2 30-12 38l-82 62c-11 8-8 14 5 15l102 2c14 0 28 11 32 23z"/>
<glyph glyph-name="trash" unicode="&#42;" d="M337 355c0 10 0 19-1 27-1 19-12 29-30 29-15 1-29 1-44 1-15 0-29 0-44-1-18 0-29-10-31-29 0-8 0-17 0-27-28 0-53 0-79 0 0-9 0-17 0-27 14 1 17-8 18-20 5-69 11-138 16-208 2-21 5-25 27-25 31 0 62-1 93-1 31 0 62 0 93 1 21 0 24 4 26 25 5 70 11 139 17 208 1 13 3 21 18 20 0 10 0 18 0 27-26 0-51 0-79 0z m-111 39c12 0 24 0 36 0 12 0 24 0 36 0 14 0 21-5 20-20 0-6 0-11 0-18-19 0-37 0-56 0-18 0-37 0-56 0 0 7 0 12 0 18-1 15 6 20 20 20z m-27-263c-3 56-6 111-9 167 6 0 10 0 17 0 3-55 6-110 9-167-7 0-11 0-17 0z m71 167c0-56 0-111 0-167l0-2-16 0 0 2c0 56 0 111 0 167l0 2 16 0z m55-167c-6 0-10 0-17 0 3 57 6 112 10 167 6 0 10 0 16 0-3-56-6-111-9-167z"/>
<glyph glyph-name="twitter" unicode="&#43;" d="M429 262c25 2 42 14 49 30-9-6-38-12-54-6 0 3-1 7-2 10-12 44-53 80-96 76 3 1 7 2 10 3 5 2 33 7 28 16-3 9-37-6-44-8 9 3 23 8 24 18-13-2-25-8-35-16 3 3 6 8 7 13-35-22-55-67-71-110-13 13-25 22-35 28-28 15-62 31-116 51-2-18 9-41 39-57-7 1-19-1-28-3 4-21 16-37 51-45-16-1-24-5-32-13 8-14 25-31 56-27-35-15-14-43 14-39-48-50-124-46-168-4 114-156 363-92 400 58 27-1 44 9 54 20-16-3-39 0-51 5z"/>
<glyph glyph-name="user" unicode="&#44;" d="M333 183c-9 1-9 25-9 25 0 0 25 25 31 59 15 0 24 36 9 49 1 13 19 105-75 105-94 0-75-92-75-105-15-13-5-49 10-49 5-34 31-59 31-59 0 0-1-24-9-25-28-5-133-51-133-101l352 0c0 50-104 96-132 101z"/>
<glyph glyph-name="vewi-grid" unicode="&#45;" d="M111 421l82 0 0-82-82 0z m243 0l82 0 0-82-82 0z m-122 0l83 0 0-82-83 0z m-121-117l82 0 0-82-82 0z m243 0l82 0 0-82-82 0z m-122 0l83 0 0-82-83 0z m-121-117l82 0 0-83-82 0z m243 0l82 0 0-83-82 0z m-122 0l83 0 0-83-83 0z"/>
<glyph glyph-name="view-list" unicode="&#46;" d="M108 422l81 0 0-82-81 0z m0-116l81 0 0-82-81 0z m0-117l81 0 0-81-81 0z m120 233l202 0 0-82-202 0z m0-116l202 0 0-82-202 0z m0-117l202 0 0-81-202 0z"/>
<glyph glyph-name="viewit" unicode="&#47;" d="M323 361l-13 38-20 0-13-38-9 38-23 0 23-60 20 0 12 36 12-36 21 0 22 60-22 0z m32 62l23 0 0-16-23 0z m65-68c-3-1-5-1-7-1-2 0-3 1-4 2 0 1-1 2-1 5l0 21 13 0 0 17-13 0 0 24-23-12 0-12-30 0 0-60 23 0 0 43 7 0 0-21c0-7 1-12 2-15 1-3 3-5 6-6 3-2 7-3 13-3 5 0 10 1 16 2z m-256 46l23 0 0-61-23 0z m0 23l-25 0-18-61-18 61-25 0 30-84 26 0 30 82 0-14 23 0 0 16z m61-44c-3 2-6 4-8 4-3 0-5 0-8-2-3-2-4-5-4-8 0-2 1-4 3-7z m24 5l-34-25c2-3 5-4 7-4 3-1 6 0 9 2 1 1 3 3 3 5 1 1 1 2 1 4l18 11c1-6 1-11-1-15-2-5-7-10-14-14-6-5-11-7-16-8-4-1-9-1-14 1-6 1-10 4-14 9-6 6-8 13-7 20 1 7 5 14 13 20 7 4 12 7 18 8 5 1 10 0 15-1 5-2 10-6 14-11z m-53-103l-10 0 0 9 10 0z m55 33c1-1 3-2 4-3 1-1 2-3 2-5 0-1 0-2 0-4l0-21-9 0 0 21c0 1-1 2-1 3-1 1-2 2-5 2-2 0-4-1-5-3-1-1-1-2-1-3l0-20-10 0 0 20c0 1 0 3 0 4-1 1-3 2-5 2-3 0-5-1-6-2 0-1 0-2 0-4l0-20-10 0 0 33 9 0 0-5c2 2 3 3 4 4 2 1 4 1 7 1 3 0 5 0 7-1 1-1 2-2 3-4 1 2 3 3 4 4 2 1 5 1 7 1 2 0 3 0 5 0m38-24c2 2 2 4 2 7 0 4 0 6-2 8-1 2-4 3-6 3-3 0-5-1-7-3-1-2-2-4-2-8 0-3 1-5 2-7 2-2 4-3 7-3 2 0 5 1 6 3m8-5c-3-3-8-5-14-5-7 0-11 2-14 5-3 4-5 8-5 12 0 5 2 9 5 13 3 3 7 5 14 5 6 0 11-2 14-5 3-4 4-8 4-13 0-4-1-8-4-12m34 5c2 2 3 4 2 7 0 2 0 4-1 6-1 3-3 4-7 4-3 0-6-1-7-4-1-2-1-4-1-6 0-3 1-5 2-7 2-2 4-3 7-3 2 0 4 1 5 3m8 20c3-3 5-7 5-12 0-5-2-9-4-13-3-3-7-5-12-5-3 0-5 1-7 2-1 1-2 2-4 3l0-4-9 0 0 44 9 0 0-15c2 1 3 2 4 3 2 1 4 1 7 1 5 0 9-1 11-4m11 4l10 0 0-33-10 0z m10 4l-10 0 0 8 10 0z m9 7l10 0 0-44-10 0z m29-19c-2-1-2-3-3-5l17 0c0 2-1 4-3 5-1 1-3 2-5 2-3 0-5-1-6-2m14 7c3-1 5-2 6-5 2-2 3-4 3-6 1-2 1-4 1-7l-27 0c0-3 2-5 4-7 1-1 3-1 5-1 2 0 4 1 6 2 0 0 1 1 1 2l10 0c0-2-1-4-3-6-4-3-8-5-14-5-5 0-9 1-13 4-4 3-6 7-6 13 0 6 2 10 6 13 3 3 7 5 13 5 3 0 6-1 8-2"/>
<glyph glyph-name="youtube" unicode="&#58;" d="M384 148l-22 0 0 12c0 6 5 11 10 11l2 0c5 0 10-5 10-11z m-82 27c-5 0-10-4-10-9l0-61c0-4 5-8 10-8 6 0 10 4 10 8l0 61c0 5-4 9-10 9z m133 34l0-117c0-28-25-51-54-51l-222 0c-30 0-54 23-54 51l0 117c0 28 24 51 54 51l222 0c29 0 54-23 54-51z m-261-129l0 123 27 0 0 18-73 0 0-18 23 0 0-123 23 0z m82 104l-23 0 0-65c0-10 1-15 0-16-2-5-10-11-14-1 0 2 0 7 0 16l0 66-23 0 0-65c0-10 0-17 0-20 1-6 1-13 6-17 11-8 30 1 35 12l0-14 19 0 0 104z m73-75l0 55c0 21-15 33-36 16l0 41-23 0 0-140 18 0 2 9c24-22 39-7 39 19z m72 7l-17 0c0 0 0-1 0-2l0-10c0-5-4-9-9-9l-4 0c-5 0-9 4-9 9l0 26 39 0 0 14c0 11 0 22-1 28-3 20-30 23-44 13-4-3-8-7-10-13-2-6-3-13-3-23l0-33c0-54 66-46 58 0z m-88 177c1-3 3-5 6-7 2-1 5-2 9-2 3 0 6 1 9 3 2 1 4 4 6 8l0-9 25 0 0 108-20 0 0-84c0-5-4-8-8-8-5 0-9 3-9 8l0 84-21 0 0-73c0-9 0-15 1-19 0-3 1-6 2-9z m-77 62c0 10 0 18 2 24 2 6 5 11 10 14 4 4 10 6 17 6 6 0 11-1 15-4 4-2 8-5 10-9 2-3 4-7 5-11 0-4 1-10 1-18l0-27c0-10-1-18-1-23-1-4-3-9-5-13-3-4-6-7-10-9-4-2-9-3-14-3-6 0-11 1-15 3-4 2-7 4-9 7-2 4-4 8-5 13-1 4-1 11-1 21z m19-44c0-6 5-11 11-11 5 0 10 5 10 11l0 58c0 7-5 12-10 12-6 0-11-5-11-12z m-70-29l24 0 0 84 28 71-26 0-15-53-16 53-26 0 31-71z"/>
<glyph glyph-name="alert" unicode="&#97;" d="M438 112l-47 91c-12 22-32 58-43 80l-48 89c-12 22-31 22-43 0l-48-90c-12-22-31-58-43-80l-48-90c-12-22-1-41 24-41l91 0c25 0 66 0 91 0l91 0c24 0 35 19 23 41z m-137 4l-45 0 0 46 45 0z m0 68l-45 0 0 91 45 0z"/>
</font>
</defs>
</svg>
